<!DOCTYPE svg PUBLIC "-//W3C//DTD SVG 1.1//EN" "http://www.w3.org/Graphics/SVG/1.1/DTD/svg11.dtd">
<!-- Uploaded to: SVG Repo, www.svgrepo.com, Transformed by: SVG Repo Mixer Tools -->
<svg fill="#e14747" width="800px" height="800px" viewBox="-12.3 -12.3 54.60 54.60" xmlns="http://www.w3.org/2000/svg" xmlns:xlink="http://www.w3.org/1999/xlink" transform="matrix(1, 0, 0, 1, 0, 0)" stroke="#e14747">
<g id="SVGRepo_bgCarrier" stroke-width="0">
<path transform="translate(-12.3, -12.3), scale(1.70625)" d="M16,30.13555980154446C17.94637522764841,29.8707806741743,19.926400659323072,29.62859866294659,21.641551561121112,28.67113226815476C23.305235392689617,27.74239686731309,24.276635512667955,26.002540116348392,25.69088841027294,24.725715117448818C27.25363011065375,23.31483049189978,29.577451839367946,22.608565837140812,30.46917493244971,20.701319923792344C31.357508655545043,18.80132330353229,30.85753431719568,16.541413446017494,30.482222116888998,14.477857119456718C30.120722562355457,12.490246026086911,29.65038718609093,10.407474726606619,28.320395525099798,8.886816327060975C27.024694096868124,7.405363985716619,24.888841002939603,7.092297778300104,23.175548994046146,6.123704095139775C21.636140422400345,5.2534137940357635,20.311843977216597,4.0923644310713385,18.67143881762556,3.431868502969296C16.855683153362218,2.700769106175673,14.91164037355441,1.491208949656381,13.032657356254273,2.039750453094433C11.126074278876882,2.5963493888298297,10.533341495517444,5.096790158030288,8.934051215890154,6.274555842575936C7.347020773649659,7.4432930124384065,4.714320438008412,7.2084921059006355,3.7106635987553442,8.904748320579522C2.709996288981507,10.595952003596405,3.8373646162041015,12.76853843725884,3.9302173702836676,14.731414726880711C4.011471263145059,16.449094954226815,4.191376378781291,18.105971800868325,4.227249329082708,19.825198571820188C4.275189599700593,22.122756925967852,3.125589929099263,24.601360422757704,4.178779738995344,26.64387453154415C5.193131189952375,28.611067083523142,7.5083453060169365,29.6780352224225,9.63099812569336,30.30501242275756C11.690258065567658,30.91326499232348,13.872383892608724,30.424994401970604,16,30.13555980154446" fill="#ffffff" strokewidth="0"/>
</g>
<g id="SVGRepo_tracerCarrier" stroke-linecap="round" stroke-linejoin="round"/>
<g id="SVGRepo_iconCarrier">
<path d="M3 7C1.895 7 1 7.895 1 9L1 21 A 1.0001 1.0001 0 1 0 1 23L3 23L3.0507812 23C3.2981763 24.685411 4.7500663 26 6.5 26C8.2499335 26 9.7018235 24.685411 9.9492188 23L21.050781 23C21.298177 24.685411 22.750067 26 24.5 26C26.249936 26 27.701837 24.685418 27.949219 23L29 23 A 1.0001 1.0001 0 1 0 29 21L29 16C29 14.895 28.105 14 27 14L22 14C21.448 14 21 13.552 21 13L21 10C21 9.448 21.448 9 22 9L24.857422 9L24.519531 8.2128906C24.204531 7.4778906 23.481641 7 22.681641 7L3 7 z M 5 9.5 A 1.5 1.5 0 0 0 6.5 11 A 1.5 1.5 0 0 0 8 9.5 A 1.5 1.5 0 0 0 9.5 11 A 1.5 1.5 0 0 0 11 9.5 A 1.5 1.5 0 0 0 12.5 11 A 1.5 1.5 0 0 0 14 9.5 A 1.5 1.5 0 0 0 15.5 11 A 1.5 1.5 0 0 0 17 9.5 A 1.5 1.5 0 0 0 18.5 11 A 1.5 1.5 0 0 0 19 10.912109L19 15C19 15.552 18.552 16 18 16L4 16C3.448 16 3 15.552 3 15L3 10.912109 A 1.5 1.5 0 0 0 3.5 11 A 1.5 1.5 0 0 0 5 9.5 z M 6.5 21C7.3402718 21 8 21.659728 8 22.5C8 23.340272 7.3402718 24 6.5 24C5.6597282 24 5 23.340272 5 22.5C5 21.659728 5.6597282 21 6.5 21 z M 24.5 21C25.340272 21 26 21.659728 26 22.5C26 23.340272 25.340272 24 24.5 24C23.659728 24 23 23.340272 23 22.5C23 21.659728 23.659728 21 24.5 21 z"/>
</g>
</svg>